<svg xmlns="http://www.w3.org/2000/svg" width="106.27mm" height="17.06mm" viewBox="0 0 301.25 48.35">
  <path d="M116.81,381.31H86.88V336.26" transform="translate(-85.32 -334.68)" style="fill: none;stroke: #eb06eb;stroke-linecap: round;stroke-linejoin: round;stroke-width: 3.118110128275049px"/>
  <path d="M354.85,381.39s10.17.12,17.11.07,13.13-4.25,13.05-11.56-7.12-11-15.86-11l-2.88-.11c-7.95.07-13.17-4.25-13.17-10.9s4.2-11.54,11.1-11.59,17.21,0,17.21,0" transform="translate(-85.32 -334.68)" style="fill: none;stroke: #eb06eb;stroke-linecap: round;stroke-linejoin: round;stroke-width: 3.118110128275049px"/>
  <path d="M159.48,381.31h-29" transform="translate(-85.32 -334.68)" style="fill: none;stroke: #eb06eb;stroke-linecap: round;stroke-linejoin: round;stroke-width: 3.118110128275049px"/>
  <path d="M130.11,358.79h22.13" transform="translate(-85.32 -334.68)" style="fill: none;stroke: #eb06eb;stroke-linecap: round;stroke-linejoin: round;stroke-width: 3.118110128275049px"/>
  <line x1="44.66" y1="1.58" x2="74.16" y2="1.58" style="fill: none;stroke: #eb06eb;stroke-linecap: round;stroke-linejoin: round;stroke-width: 3.118110128275049px"/>
  <path d="M310.81,336.26s9.81,0,16.75,0,11.1,4.94,11.1,11.59-4.52,10.9-11,10.9-9.34,0-12.28,0L338,381.31" transform="translate(-85.32 -334.68)" style="fill: none;stroke: #eb06eb;stroke-linecap: round;stroke-linejoin: round;stroke-width: 3.118110128275049px"/>
  <path d="M174.39,381.31l18.76-45.05L214.35,381" transform="translate(-85.32 -334.68)" style="fill: none;stroke: #eb06eb;stroke-linecap: round;stroke-linejoin: round;stroke-width: 3.118110128275049px"/>
  <path d="M159.48,336.26l-7.24,22.53" transform="translate(-85.32 -334.68)" style="fill: none;stroke: #000;stroke-linecap: round;stroke-linejoin: round;stroke-width: 3.118110128275049px"/>
  <path d="M226.1,336.24s4.74,0,11.68,0,15,4.72,14.87,14.84l.14,16c.07,7.31-6.19,14.13-13.08,14.18s-13.61,0-13.61,0" transform="translate(-85.32 -334.68)" style="fill: none;stroke: #eb06eb;stroke-linecap: round;stroke-linejoin: round;stroke-width: 3.118110128275049px"/>
  <path d="M297.64,381.31h-29" transform="translate(-85.32 -334.68)" style="fill: none;stroke: #eb06eb;stroke-linecap: round;stroke-linejoin: round;stroke-width: 3.118110128275049px"/>
  <path d="M268.26,358.79H290.4" transform="translate(-85.32 -334.68)" style="fill: none;stroke: #eb06eb;stroke-linecap: round;stroke-linejoin: round;stroke-width: 3.118110128275049px"/>
  <line x1="182.81" y1="1.58" x2="212.32" y2="1.58" style="fill: none;stroke: #eb06eb;stroke-linecap: round;stroke-linejoin: round;stroke-width: 3.118110128275049px"/>
  <path d="M297.64,336.26l-7.24,22.53" transform="translate(-85.32 -334.68)" style="fill: none;stroke: #000;stroke-linecap: round;stroke-linejoin: round;stroke-width: 3.118110128275049px"/>
</svg>
