<svg id="Layer_1_Image" data-name="Layer 1 Image" xmlns="http://www.w3.org/2000/svg" width="72.8px" height="85.2px" viewBox="0 0 206.61 241.51">

  <path fill="none" stroke="#FF0000" stroke-width="2" stroke-linecap="round" stroke-linejoin="round" stroke-miterlimit="10" d="M317.51,275.38l-12.72,11c-11.69,8.29-25.05,13.88-41.52,17.52-15.16,3.34-34.42.9-46.8-2.88-31.94-9.77-53.39-30.64-65.52-60.24-3.77-9.19-9.46-29.09-7-43.68,1.86-10.88,2.74-20.42,6.24-29.28,11.71-29.69,34.26-51.57,65.76-61.44,6.35-2,12.52-2.3,19.92-3.6,10.51-1.85,23.85-.32,32.64,1.92,13.32,3.39,25.18,8.63,35,15.6l11.52,9.36,1.68,1.68,13-12.72v-.48c-3.22-4.3-8.38-7.61-12.72-10.8C297.2,92.82,274,83,238.79,83.62l-10.08,1c-8.84,1.73-17.32,3.25-25,6.24-27.64,10.8-48.26,28.75-62.64,52.8-5.59,9.34-9.54,20.26-12.72,31.92-4.95,18.1-3.59,44.37,1.44,61,10.71,35.35,32.67,62,64.56,76.08a153.11,153.11,0,0,0,29,9.6l13.2,1.44,13.44.48,16.08-1.68c13.58-3,26.2-6.56,36.72-12.72l14.88-9.6,8.4-7,4.56-4.8ZM229.91,152l-5.76,12V285c5.42,1.89,12.75,2.73,19.68,2.64V163.78l-10.08-19.44v-.48ZM211.43,280.66l.24-97.92-19.44-.24L192,268.66C196.63,273.84,204.68,277.71,211.43,280.66Zm-31.2-23.76v-54H160.79C160.82,222.79,169.82,247.9,180.23,256.9Zm76.08,29.76A56.69,56.69,0,0,0,276,281.38V202.9H256.31Zm31-11c8.17-2.95,13-10.78,19.44-15.6V225.94H287.27Z" transform="translate(-124.79 -83.09)"/>
</svg>
