<svg xmlns="http://www.w3.org/2000/svg" width="119.79mm" height="140.11mm" viewBox="0 0 339.56 397.17">
  <path d="M381.11,328.91,360.16,347.1C340.91,360.76,318.9,370,291.77,376c-25,5.51-56.69,1.49-77.09-4.75-52.62-16.08-87.94-50.46-107.93-99.22-6.2-15.13-15.58-47.91-11.46-72,3.06-17.91,4.52-33.64,10.27-48.23C124.86,102.91,162,66.86,213.89,50.6c10.47-3.28,20.62-3.79,32.81-5.93,17.32-3.05,39.29-.52,53.76,3.16,22,5.59,41.48,14.23,57.72,25.7l19,15.42,2.77,2.76,21.34-20.95V70c-5.3-7.07-13.79-12.53-20.95-17.79C347.67,28.2,309.44,12,251.44,13l-16.6,1.58C220.29,17.49,206.32,20,193.72,24.9c-45.52,17.81-79.49,47.36-103.18,87-9.21,15.4-15.7,33.37-21,52.58-8.15,29.82-5.91,73.09,2.37,100.41C89.61,323.11,125.78,367,178.31,390.19A251,251,0,0,0,226.14,406l21.74,2.38,22.14.79,26.49-2.77c22.37-5,43.16-10.8,60.49-20.95l24.51-15.82,13.83-11.46,7.51-7.91ZM236.82,125.71q-4.75,9.89-9.49,19.77V344.73c8.92,3.12,21,4.49,32.41,4.35v-204q-8.3-16-16.6-32v-.79Q240,119,236.82,125.71Zm-30.45,211.9q.21-80.64.4-161.29l-32-.4q-.19,71-.4,141.92C182,326.38,195.26,332.76,206.37,337.61ZM155,298.47v-89H123C123,242.29,137.83,283.65,155,298.47Zm125.32,49c11.93-.71,23.34-4.53,32.42-8.69V209.52H280.3Zm51-18.18c13.46-4.85,21.49-17.75,32-25.7V247.48h-32Z" transform="translate(-63.99 -12.5)" style="fill: none;stroke: #fff;stroke-miterlimit: 10"/>
</svg>
