<svg xmlns="http://www.w3.org/2000/svg" width="117.14mm" height="136.54mm" viewBox="0 0 332.06 387.05">
  <path d="M395.41,199.77s-23.56.06-58-.1c-34.23-.15-74.44-18.26-73.77-57.55l-.72-62.23c-.38-28.36,30.65-54.85,64.88-55,34.43-.18,67.52.08,67.52.08" transform="translate(-64.91 -20.16)" style="fill: none;stroke: #fff;stroke-linecap: round;stroke-linejoin: round;stroke-width: 3.11811012827505px"/>
  <g>
    <path d="M197.75,196.68H66.47v-175" transform="translate(-64.91 -20.16)" style="fill: none;stroke: #fff;stroke-linecap: round;stroke-linejoin: round;stroke-width: 3.11811012827505px"/>
    <path d="M350.19,405.65v-175l-33.3,28.14" transform="translate(-64.91 -20.16)" style="fill: none;stroke: #fff;stroke-linecap: round;stroke-linejoin: round;stroke-width: 3.11811012827505px"/>
    <path d="M475.35,399.36" transform="translate(-64.91 -20.16)" style="fill: none;stroke: #c80ee5;stroke-linecap: round;stroke-linejoin: round;stroke-width: 3.11811012827505px"/>
    <path d="M78.08,254s35.92-23.66,64.84-23.32c42.09-3,62.84,14.52,63.85,36.26,1,21.45-22.59,46.48-37.82,59.09-14.9,12.33-69.83,53.67-77.71,67.59-3,5.4-4.48,12,1.73,12H207.76" transform="translate(-64.91 -20.16)" style="fill: none;stroke: #fff;stroke-linecap: round;stroke-linejoin: round;stroke-width: 3.11811012827505px"/>
  </g>
</svg>
