<svg id="Layer_1_Image" data-name="Layer 1 Image" xmlns="http://www.w3.org/2000/svg" width="115.54mm" height="20.35mm" viewBox="0 0 327.52 57.67">
  <g>
    <path d="M81.18,231.53a2,2,0,0,1-.65-1.55V178.07a2,2,0,0,1,.65-1.55,2.22,2.22,0,0,1,3.06,0,2.14,2.14,0,0,1,.61,1.55v50.18h29.59a2.27,2.27,0,0,1,1.55.54,1.92,1.92,0,0,1,0,2.81,2.27,2.27,0,0,1-1.55.54H82.69A2.11,2.11,0,0,1,81.18,231.53Z" transform="translate(-80.53 -175.19)"/>
    <path d="M126.21,231.53a2.09,2.09,0,0,1-.61-1.55V178.07a2.09,2.09,0,0,1,2.16-2.16h34.63a2.11,2.11,0,0,1,1.51.61,2.13,2.13,0,0,1,0,3.06,2.07,2.07,0,0,1-1.51.65H129.92v21.6h23.83a2.09,2.09,0,0,1,2.16,2.16,2.2,2.2,0,0,1-.61,1.58,2,2,0,0,1-1.55.65H129.92v21.6h32.47a2.07,2.07,0,0,1,1.51.65,2,2,0,0,1,.65,1.51,2,2,0,0,1-.65,1.55,2.11,2.11,0,0,1-1.51.61H127.76A2.1,2.1,0,0,1,126.21,231.53Z" transform="translate(-80.53 -175.19)"/>
    <path d="M217.47,230a2.17,2.17,0,0,1-4.18.79L208,218H178.66l-5.33,12.74a1.94,1.94,0,0,1-2,1.37,2,2,0,0,1-1.59-.65,2.2,2.2,0,0,1-.57-1.51,2.08,2.08,0,0,1,.21-.93l21.82-51.63a2.09,2.09,0,0,1,2.09-1.51,2.18,2.18,0,0,1,2.09,1.51l21.89,51.63A2.08,2.08,0,0,1,217.47,230Zm-37.15-15.84h26l-13-31.1Z" transform="translate(-80.53 -175.19)"/>
    <path d="M226.22,231.53a2.09,2.09,0,0,1-.61-1.55V178.07a2,2,0,0,1,.61-1.58,2.14,2.14,0,0,1,1.55-.58h13a29.17,29.17,0,0,1,14.54,3.6,25.79,25.79,0,0,1,10,10,31.1,31.1,0,0,1,0,29.05,25.69,25.69,0,0,1-10,10,29.17,29.17,0,0,1-14.54,3.6h-13A2.09,2.09,0,0,1,226.22,231.53Zm14.51-3.28A24.08,24.08,0,0,0,253,225.12a22.31,22.31,0,0,0,8.46-8.67,26.82,26.82,0,0,0,0-24.88,22.37,22.37,0,0,0-8.46-8.64,24.08,24.08,0,0,0-12.31-3.13h-10.8v48.45Z" transform="translate(-80.53 -175.19)"/>
    <path d="M281,231.53a2.09,2.09,0,0,1-.61-1.55V178.07a2.09,2.09,0,0,1,2.16-2.16h34.63a2.12,2.12,0,0,1,1.51.61,2.13,2.13,0,0,1,0,3.06,2.08,2.08,0,0,1-1.51.65H284.72v21.6h23.83a2.1,2.1,0,0,1,1.55.61,2.14,2.14,0,0,1,.61,1.55,2.25,2.25,0,0,1-.61,1.58,2,2,0,0,1-1.55.65H284.72v21.6h32.47a2.22,2.22,0,0,1,2.16,2.16,2,2,0,0,1-.65,1.55,2.12,2.12,0,0,1-1.51.61H282.56A2.09,2.09,0,0,1,281,231.53Z" transform="translate(-80.53 -175.19)"/>
    <path d="M364.56,230.49a1.41,1.41,0,0,1-.61,1.22,3,3,0,0,1-1.76.43,2,2,0,0,1-1.15-.29,2.79,2.79,0,0,1-.8-.86L347,209.82H334.11V230a2.19,2.19,0,0,1-.58,1.55,2,2,0,0,1-1.58.61,2.09,2.09,0,0,1-2.16-2.16V178.07a2,2,0,0,1,.61-1.58,2.14,2.14,0,0,1,1.55-.58H345.7a19.65,19.65,0,0,1,9.29,2.16,16,16,0,0,1,6.41,6.05,17.07,17.07,0,0,1,2.3,8.85,16.24,16.24,0,0,1-3.28,10.19A16.42,16.42,0,0,1,351.6,209L364,228.83A3.59,3.59,0,0,1,364.56,230.49Zm-18.86-25a15.38,15.38,0,0,0,7.06-1.58,12.06,12.06,0,0,0,4.86-4.47,12.21,12.21,0,0,0,1.76-6.48,12.51,12.51,0,0,0-1.76-6.58,12.16,12.16,0,0,0-4.86-4.54,15,15,0,0,0-7.06-1.62H334.11V205.5Z" transform="translate(-80.53 -175.19)"/>
    <path d="M378.67,230.09a17.79,17.79,0,0,1-7.41-7.6,1.93,1.93,0,0,1-.22-.86,1.88,1.88,0,0,1,.62-1.44,2.26,2.26,0,0,1,1.62-.58,2.16,2.16,0,0,1,2.08,1.37,13.32,13.32,0,0,0,5.8,5.58,20,20,0,0,0,9.25,2q6.19,0,9.76-3.09t3.56-8.79a10.52,10.52,0,0,0-3.49-8.1q-3.5-3.19-10.33-4.14-8-1.15-12.57-5.22a12.75,12.75,0,0,1-4.57-9.9,13,13,0,0,1,2.13-7.38,13.93,13.93,0,0,1,6-5,21.24,21.24,0,0,1,8.89-1.76,19,19,0,0,1,9.65,2.52,17.24,17.24,0,0,1,6.48,6,2.28,2.28,0,0,1,.29,1.15,1.82,1.82,0,0,1-.32,1,2.28,2.28,0,0,1-.91.76,1.94,1.94,0,0,1-.86.14,2.27,2.27,0,0,1-2-1.08q-4.26-6.26-12.32-6.26-6,0-9.32,2.7a9.13,9.13,0,0,0-3.35,7.52,8.47,8.47,0,0,0,3.31,6.77q3.32,2.75,10.23,3.89,9.06,1.52,13.24,5.58a14.24,14.24,0,0,1,4.18,10.69,16.56,16.56,0,0,1-2.19,8.64,14.39,14.39,0,0,1-6.2,5.62,21,21,0,0,1-9.25,1.94A23.73,23.73,0,0,1,378.67,230.09Z" transform="translate(-80.53 -175.19)"/>
  </g>
</svg>
