<svg id="Layer_1_Image" data-name="Layer 1 Image" xmlns="http://www.w3.org/2000/svg" width="168.34mm" height="142.69mm" viewBox="0 0 477.19 404.46">
  <defs>
    <style>
      .cls-1 {
        fill: none;
        stroke: #ff8080;
        stroke-miterlimit: 10;
      }
    </style>
  </defs>
  <path class="cls-1" d="M273.62,255.79c13.58-3,26.2-6.55,36.72-12.72l14.88-9.6,8.4-7,4.56-4.8-13.2-13-12.72,11c-11.69,8.3-25.06,13.89-41.52,17.52-15.17,3.35-34.42.91-46.8-2.88-31.94-9.76-53.39-30.64-65.52-60.24-3.77-9.18-9.47-29.08-7-43.68,1.86-10.87,2.74-20.42,6.24-29.28C169.41,71.55,192,49.66,223.46,39.79c6.35-2,12.52-2.3,19.92-3.6,10.51-1.85,23.85-.31,32.64,1.92a105.8,105.8,0,0,1,35,15.6l11.52,9.36,1.68,1.68,13-12.72v-.48c-3.22-4.29-8.38-7.6-12.72-10.8-19.83-14.56-43-24.38-78.24-23.76l-10.08,1c-8.84,1.74-17.32,3.25-25,6.24C183.58,35,163,52.94,148.58,77c-5.6,9.35-9.54,20.27-12.72,31.92-5,18.11-3.59,44.37,1.44,61C148,205.23,170,231.89,201.86,246a152.4,152.4,0,0,0,29,9.6L244.1,257l13.44.48ZM237.38,85.39l-5.76,12v121c5.41,1.9,12.74,2.73,19.68,2.64V97.15q-5-9.72-10.08-19.44v-.48ZM218.9,214l.24-97.92-19.44-.24L199.46,202C204.1,207.21,212.15,211.09,218.9,214Zm-31.2-23.76v-54H168.26C168.29,156.17,177.29,181.27,187.7,190.27ZM263.78,220a56.25,56.25,0,0,0,19.68-5.28V136.27H263.78Zm31-11c8.17-2.94,13-10.77,19.44-15.6V159.31H294.74ZM23.3,329.47c-3.09-18.93,24-27.56,30.48-13.92l1.92,1.68,14.16-10.8.48-.72c-9.36-8.07-13.63-14.93-31.92-14.64l-9.12,1.44A36.33,36.33,0,0,0,6,312.91C-5.83,340.43,17.4,370.46,47.54,364c13.16-2.8,15-7.95,23-14.88v-.48L55.94,338.11C45.54,353,26.29,347.81,23.3,329.47Zm55.92,33.84H98.9V292.75H79.22Zm25.44-53.52L126,310v53.28h19.44L145.7,310h20.88l.24-17.28H104.66Zm109.2,53.52.24-27.12q13.31-21.72,26.64-43.44H218.66q-7.08,12.48-14.16,25v.48q-7.32-12.72-14.64-25.44H167.54q13.31,21.84,26.64,43.68v26.64Zm56.4-70.56v70.56h53.52L324,346H289.94V292.75Zm60,70.32,19.68.24.24-70.56H330.26Zm28.32,0,19.44.24.24-25.2h33.36V321.79l-33.36-.24V310H415l.24-17.28H358.58Zm82.56-16.56v-11H475v-15.6H441.14V309.31h37.44V292.75H421.94v70.56h57.12v-16.8ZM142.58,404.59c-2.3-9.85,6.55-13.27,13.68-10.08,3.25,4.46,5.79-1.32,9.6-3.12-2.2-4.94-8.8-7.8-16.08-7.68-3.22,1.24-6.28,1.07-8.88,2.64-6.57,4-11.81,15.71-6.48,25,6.61,11.5,24,12.22,31.68,1.2l-7.44-5.28C154.35,413.3,144.41,412.44,142.58,404.59Zm165.12,2.64c-4.5,6.3-14.44,5.07-16.08-3.12-2.07-10.28,11.51-15.39,15.12-7.92l1,.72,7.2-5.52c.94-3.56-11.14-7.79-16.08-7.68-3.62,1.39-6.79,1.25-9.6,3.12-8.62,5.75-9.94,20.06-2.88,28.32,6.31,7.4,24.17,6.78,28.32-2.16l.48-.48-7.2-5.28Zm-115.44-9.6H180v-13.2h-9.84v35.28H180v-13.2h12.24v13.2h10.08v-35l-9.84-.24Zm38.64-13.2c-2.13,8.67,3.74,25.18-5,27.12-11.28,2.5-8.11-18.09-7.92-27.12H208.1l-.24,12.48c0,12.91.93,20,11,22.8a24.49,24.49,0,0,0,11.76,0c12.16-3.64,10.33-19.45,10.08-35.28Zm39.84,23.28c2-1.9,4.7-2.95,6-5.52a13.91,13.91,0,0,0,.72-7.92c-2.46-11.78-16.75-10.13-31-9.84v35.28h9.84V409.15h4.08l7,10.08c1.57,1.44,8.83.56,11.52.48q-3.84-5.76-7.68-11.52Zm70.8-10.08H329.06v-13.2h-9.6l-.24,35.28h9.84v-13.2h12.48v13.2h9.84v-35l-9.84-.24Z" transform="translate(-2.36 -16.46)"/>
</svg>
