<?xml version="1.0" encoding="utf-8"?>
<!-- Generator: Adobe Illustrator 25.4.1, SVG Export Plug-In . SVG Version: 6.00 Build 0)  -->
<svg version="1.1" id="Layer_1_xA0_Image_00000134229126386816941930000003147123632768065165_"
	 xmlns="http://www.w3.org/2000/svg" xmlns:xlink="http://www.w3.org/1999/xlink" x="0px" y="0px" viewBox="0 0 481.92 425.28"
	 style="enable-background:new 0 0 481.92 425.28;" xml:space="preserve">
<g>
	<path fill="none" stroke="#FF0000" stroke-width="2" stroke-linecap="round" stroke-linejoin="round" stroke-miterlimit="10" d="M106.87,221.56H78.05v-46.13L106.87,221.56z"/>
	<path fill="none" stroke="#FF0000" stroke-width="2" stroke-linecap="round" stroke-linejoin="round" stroke-miterlimit="10" d="M148.69,221.56h-34.43v-46.13h33.36L148.69,221.56z"/>
	<path fill="none" stroke="#FF0000" stroke-width="2" stroke-linecap="round" stroke-linejoin="round" stroke-miterlimit="10" d="M152.15,221.56l21.12-46.29l21.87,46.29H152.15z"/>
	<path fill="none" stroke="#FF0000" stroke-width="2" stroke-linecap="round" stroke-linejoin="round" stroke-miterlimit="10" d="M200.11,221.56v-46.13H216c7.59,0,13.2,1.87,16.82,5.62s5.43,9.48,5.43,17.2c0,8.22-1.87,14.16-5.6,17.81
		c-3,2.94-7.69,4.69-14.07,5.25C212.44,221.39,206.28,221.47,200.11,221.56z"/>
	<path fill="none" stroke="#FF0000" stroke-width="2" stroke-linecap="round" stroke-linejoin="round" stroke-miterlimit="10" d="M281.2,221.56h-34.43v-46.13h33.36L281.2,221.56z"/>
	<path fill="none" stroke="#FF0000" stroke-width="2" stroke-linecap="round" stroke-linejoin="round" stroke-miterlimit="10" d="M296.53,221.56v-46.04l13.66-0.09c3.46-0.02,6.18,0.26,8.15,0.85c2.6,0.78,4.65,2.26,6.14,4.44
		c1.43,2.1,2.14,4.53,2.14,7.3c0,3.27-1.06,6.03-3.18,8.28c-2.81,2.98-11.78,4.46-26.91,4.44V221.56z M327.37,221.56l-5.88-10.92
		c-0.04-0.06-2-3.69-5.88-10.89L327.37,221.56z"/>
	<path fill="none" stroke="#FF0000" stroke-width="2" stroke-linecap="round" stroke-linejoin="round" stroke-miterlimit="10" d="M369.47,188.42c-0.19-4.74-2-8.3-5.44-10.67c-3-2.08-6.96-3.12-11.89-3.12c-4.36,0-8.05,1-11.05,2.99
		c-3.46,2.33-5.19,5.57-5.19,9.72c0,2.52,0.85,4.78,2.55,6.8c1.8,2.14,3.98,3.21,6.51,3.21c0.78,0,2.14-0.03,4.11-0.09
		c1.96-0.06,3.5-0.09,4.61-0.09c5.18,0,9.08,0.64,11.71,1.92c3.65,1.78,5.48,4.93,5.48,9.44c0,4.45-1.79,7.93-5.38,10.45
		c-3.17,2.25-7.06,3.37-11.67,3.37c-5.56,0-10.06-1.18-13.5-3.56c-3.97-2.71-6.02-6.72-6.17-12.05L369.47,188.42z"/>
</g>
</svg>
