<svg id="Layer_1" data-name="Layer 1" xmlns="http://www.w3.org/2000/svg" width="191.28mm" height="104.05mm" viewBox="0 0 542.22 294.95">
  <g>
    <g id="Puppy_Scared_Run_assets_Duplicate_Items_Folder_dog_legrun_5_Layer0_0_FILL" data-name="Puppy Scared Run  assets   Duplicate Items Folder dog legrun 5 Layer0 0 FILL">
      <path d="M448.89,320.64a56.76,56.76,0,0,1,14-28.42,112,112,0,0,1,25.36-20.46q2.63-1.41,5-3a100.88,100.88,0,0,0,12.84-9.05c1-.85,1.94-1.68,2.77-2.5a6.3,6.3,0,0,0-.09-1,5.7,5.7,0,0,1,.61-1h0q10.38-1.4,10.42,8.65A53.5,53.5,0,0,1,516.92,281a28.89,28.89,0,0,1-1.21,2.81,9.35,9.35,0,0,0-1.41.13c-1,.3-2,.56-2.86.79l-2.24.5A41.38,41.38,0,0,0,493.65,304,90.85,90.85,0,0,0,487,318.58a31.63,31.63,0,0,0-1.19,19.9,76.66,76.66,0,0,0,12.35,25.64c-2.08,3.32-4.28,6.57-6.57,9.74q-5.43,5.63-10.9,11.2a75.34,75.34,0,0,1-14.34,11.73,21.74,21.74,0,0,1-13.23-.59,1.59,1.59,0,0,1-1.22-1.47q-1.92-16.23,13-27,9.09-6.61-.48-14.88Q445.75,336.88,448.89,320.64Z" transform="translate(-124.38 -152.63)" style="fill: #fc6"/>
      <path d="M462.85,292.22a56.76,56.76,0,0,0-14,28.42q-3.15,16.23,15.56,32.24,9.57,8.26.48,14.88-14.91,10.73-13,27a1.59,1.59,0,0,0,1.22,1.47,21.74,21.74,0,0,0,13.23.59,75.34,75.34,0,0,0,14.34-11.73q5.46-5.58,10.9-11.2c2.29-3.17,4.49-6.42,6.57-9.74a76.66,76.66,0,0,1-12.35-25.64,31.63,31.63,0,0,1,1.19-19.9A90.85,90.85,0,0,1,493.65,304a41.38,41.38,0,0,1,15.55-18.82l2.24-.5c.88-.23,1.84-.49,2.86-.79a9.35,9.35,0,0,1,1.41-.13,4.57,4.57,0,0,1,1.77,1,2.7,2.7,0,0,1,1.16,2,77.6,77.6,0,0,0-15.45,27.58,41.66,41.66,0,0,0,.58,27.91q3,7.78,5.2,15.27h0a3,3,0,0,1,1.62.52,8.17,8.17,0,0,1,1.5.84c-.4,2-.85,4-1.37,5.9-.17.34-.3.66-.41.94q-5.3,17-20.12,30.18-13.4,11.67-20.29,16.92-7.74,2.55-13.6,1.84-5.76-.47-14.79-13-9.21-12.48.5-26.13,9.5-13.49,10.06-15.09a18.09,18.09,0,0,1-4.14-3.67,47.23,47.23,0,0,1-9.44-16.38Q427.72,308.77,453,282.55a127.78,127.78,0,0,1,26.47-21.46q4.39-2,8.5-4.08a67.48,67.48,0,0,1,9-3.3,21.78,21.78,0,0,1,8.92-.74,5,5,0,0,1,3.55,1.93,1.15,1.15,0,0,0-.14.31,5.7,5.7,0,0,0-.61,1,6.3,6.3,0,0,1,.09,1c-.83.82-1.75,1.65-2.77,2.5a100.88,100.88,0,0,1-12.84,9.05q-2.39,1.59-5,3A112,112,0,0,0,462.85,292.22Z" transform="translate(-124.38 -152.63)"/>
    </g>
    <g id="Puppy_Scared_Run_assets_Duplicate_Items_Folder_dog_legrun_2_Layer0_0_FILL" data-name="Puppy Scared Run  assets   Duplicate Items Folder dog legrun 2 Layer0 0 FILL">
      <path d="M409.61,293.51a23.38,23.38,0,0,1,2.57-.46q13.6,1.6,15,13.54a20,20,0,0,1,.05,4.36c-.19-.33-.38-.72-.58-1.15q-8.22,2.07-10.72,11.47-10.77,41.07,7.49,75.93,5.81,11.48,12.56,22.49a45,45,0,0,0,10.75,12.38q-21,2-41.55,2.76a264.76,264.76,0,0,1-31-1.84c.08-1.89.11-3.8.08-5.73q1.36-3.39,6-5.28,7-3.15,14.76-5.73A67.37,67.37,0,0,1,407,416c1.07,0,1.41-.31,1-.92a231.1,231.1,0,0,0-17.57-25.24q-16-20.17-5.68-44.27,6.24-15,13.79-29.37c1.36-1.82,2.83-3.65,4.43-5.5q6.9-8.06,6.89-14.68a4.75,4.75,0,0,0,.52-.69,2.16,2.16,0,0,0-.39-.69.75.75,0,0,1-.18-.46A.84.84,0,0,1,409.61,293.51Z" transform="translate(-124.38 -152.63)" style="fill: #fc6"/>
      <path d="M407.48,289.38a14.65,14.65,0,0,1,2.13,4.13.84.84,0,0,0,.17.69.75.75,0,0,0,.18.46,2.16,2.16,0,0,1,.39.69,4.75,4.75,0,0,1-.52.69q0,6.63-6.89,14.68c-1.6,1.85-3.07,3.68-4.43,5.5q-7.54,14.4-13.79,29.37-10.31,24.09,5.68,44.27A231.1,231.1,0,0,1,408,415.1c.4.61.06.92-1,.92a67.37,67.37,0,0,0-11.95.23q-7.72,2.58-14.76,5.73-4.65,1.89-6,5.28c0,1.93,0,3.84-.08,5.73a264.76,264.76,0,0,0,31,1.84q20.58-.79,41.55-2.76A45,45,0,0,1,436,419.69q-6.76-11-12.56-22.49-18.26-34.86-7.49-75.93,2.49-9.4,10.72-11.47c.2.43.39.82.58,1.15q4.47,11.43,0,26.38a66.73,66.73,0,0,0-2.4,20.42,85.52,85.52,0,0,0,1.83,14.68,98.53,98.53,0,0,0,10.53,22q7,11.35,14.39,22.48,2.25,3.74,4.81,7.34c.67,1.26,1.39,2.48,2.17,3.68q6.44,9.66-5,11.47-4.07,4.36-12.25,5.73A173.69,173.69,0,0,1,377.24,444h-2.06c-3.52.1-6.11-.74-7.79-2.52a14.48,14.48,0,0,1-2.25-.46,5,5,0,0,1-3.49-4.36q-1.45-10.34,4.86-17.43,3.23-5.67,11.34-8.26A62.21,62.21,0,0,1,386,407.3a43.25,43.25,0,0,1-10.57-11.93q-17.19-29.13-.38-63.78A132.26,132.26,0,0,1,407.48,289.38Z" transform="translate(-124.38 -152.63)"/>
    </g>
    <g id="Puppy_Scared_Run_assets_Duplicate_Items_Folder_dog_tail_1_Layer0_0_FILL" data-name="Puppy Scared Run  assets   Duplicate Items Folder dog tail 1 Layer0 0 FILL">
      <path d="M547.18,216.38q-7.11,3.21-9.84-2.86-2.25-5,20.62-24.62,23.19-19.49,31.06-18.75,27.16-11.72,51.7-11.43,21.75.27,25.24,8,1.31,2.92-.07,1.53a19.44,19.44,0,0,1-3.67,1.91q-6-2.1-17.38-1.74-22.62.62-56.51,15.85-10.67,4.8-23.81,17.51T547.18,216.38Z" transform="translate(-124.38 -152.63)"/>
    </g>
    <g id="Puppy_Scared_Run_assets_Duplicate_Items_Folder_dog_body1_0_Layer0_0_FILL" data-name="Puppy Scared Run  assets   Duplicate Items Folder dog body1 0 Layer0 0 FILL">
      <path d="M332.61,317.58q-81.3-40.26-21.34-64.06,40.8-16.1,115.78-34.25Q519.59,197,547.37,205.2q11,3.26,17.33,15.62,12.06,23.61-5.37,69-28.12,73.29-66,80.48-12.51,2.51-27.25-2.57-14.13-6.09-18.53-7.39-71.46-21.12-114.95-42.8m-7-54.09q-56.67,5,22.2,40.69a823.5,823.5,0,0,0,107.31,40.31,121.58,121.58,0,0,1,12,5.21,34.08,34.08,0,0,0,19.78,1.56q29.08-6.69,52.35-67.33,10.2-26.58,6.36-45.37-2.89-14.2-10-16.3Q516.27,216.53,423,238.12,346.18,256,325.62,263.49Z" transform="translate(-124.38 -152.63)"/>
      <path d="M347.82,304.18q-78.85-35.73-22.2-40.69Q346.18,256,423,238.12q93.26-21.6,112.65-15.86,7.07,2.09,10,16.3,3.82,18.8-6.36,45.37Q516,344.58,486.91,351.26a34.08,34.08,0,0,1-19.78-1.56,121.58,121.58,0,0,0-12-5.21A823.5,823.5,0,0,1,347.82,304.18Z" transform="translate(-124.38 -152.63)" style="fill: #fc6"/>
    </g>
    <g id="Puppy_Scared_Run_assets_Duplicate_Items_Folder_dog_legrun_5_Layer0_0_FILL-2" data-name="Puppy Scared Run  assets   Duplicate Items Folder dog legrun 5 Layer0 0 FILL">
      <path d="M346.19,345.82a56.85,56.85,0,0,1,24.39-20.19,112.22,112.22,0,0,1,31.52-8.26q3-.21,5.8-.68a99.59,99.59,0,0,0,15.42-3c1.27-.35,2.46-.74,3.55-1.14a5.52,5.52,0,0,0,.31-.92,6.43,6.43,0,0,1,1-.69h0q10,3,6,12.16a53.48,53.48,0,0,1-9.63,14.45,27.82,27.82,0,0,1-2.26,2.07,8.38,8.38,0,0,0-1.33-.46c-1.06-.15-2-.31-2.94-.46l-2.25-.46A41.44,41.44,0,0,0,393.82,349a91.81,91.81,0,0,0-12,10.56,31.65,31.65,0,0,0-9.24,17.66,76.79,76.79,0,0,0,.75,28.45q-4.89,3.26-10,6.19-7.26,2.89-14.54,5.74a74.92,74.92,0,0,1-17.89,4.81,21.72,21.72,0,0,1-11.82-6,1.58,1.58,0,0,1-.51-1.84q4.92-15.6,22.92-19.27,11-2.3,5.67-13.76Q336.66,359.34,346.19,345.82Z" transform="translate(-124.38 -152.63)" style="fill: #fc6"/>
      <path d="M370.58,325.63a56.85,56.85,0,0,0-24.39,20.19q-9.54,13.51,1,35.79,5.32,11.47-5.67,13.76-18,3.67-22.92,19.27a1.58,1.58,0,0,0,.51,1.84,21.72,21.72,0,0,0,11.82,6,74.92,74.92,0,0,0,17.89-4.81q7.29-2.85,14.54-5.74,5.1-2.94,10-6.19a76.79,76.79,0,0,1-.75-28.45,31.65,31.65,0,0,1,9.24-17.66,91.81,91.81,0,0,1,12-10.56,41.44,41.44,0,0,1,21.9-10.78l2.25.46c.9.15,1.88.31,2.94.46a8.38,8.38,0,0,1,1.33.46,4.47,4.47,0,0,1,1.23,1.6,2.78,2.78,0,0,1,.24,2.3,77.53,77.53,0,0,0-25.41,18.81A41.69,41.69,0,0,0,387.38,388q-.48,8.34-1.52,16.06h0a3.12,3.12,0,0,1,1.27,1.15,8,8,0,0,1,1,1.37q-1.78,2.53-3.66,4.82c-.29.25-.54.48-.76.69Q371.93,425.46,353,431.39q-17,5.14-25.45,7.11-8.12-.86-13.17-3.9-5.06-2.79-8.17-17.89-3.27-15.18,11.19-23.63,14.18-8.4,15.36-9.64a17.87,17.87,0,0,1-2.27-5,46.87,46.87,0,0,1-1.89-18.81q3.13-33.27,37-46.8a127.87,127.87,0,0,1,32.94-8.72q4.81,0,9.43-.23a66.31,66.31,0,0,1,9.56.69,21.66,21.66,0,0,1,8.44,3,5,5,0,0,1,2.45,3.21,1.44,1.44,0,0,0-.25.23,6.43,6.43,0,0,0-1,.69,5.52,5.52,0,0,1-.31.92c-1.09.4-2.28.79-3.55,1.14a99.59,99.59,0,0,1-15.42,3q-2.83.46-5.8.68A112.22,112.22,0,0,0,370.58,325.63Z" transform="translate(-124.38 -152.63)"/>
    </g>
    <g id="Puppy_Scared_Run_assets_Duplicate_Items_Folder_dog_legrun_2_Layer0_0_FILL-2" data-name="Puppy Scared Run  assets   Duplicate Items Folder dog legrun 2 Layer0 0 FILL">
      <path d="M514.52,277.84a21.73,21.73,0,0,1,2.21-1.51q13.39-4.23,19.72,6.34a20.73,20.73,0,0,1,1.87,4.06c-.31-.23-.65-.51-1-.83q-6.82,5.39-5.2,15.23Q539.3,344.06,571,369q10.23,8.28,21.19,15.74a46.2,46.2,0,0,0,15.26,7.06q-18.78,10.67-37.69,20.05A272.31,272.31,0,0,1,540,423.16q-1.08-2.7-2.33-5.4-.15-3.74,3.39-7.46,5.26-5.9,11.4-11.57a70,70,0,0,1,11.07-5.24c1-.45,1.19-.88.56-1.28a235.5,235.5,0,0,0-27-16.21q-23.43-12.15-23.92-39-.46-16.61.55-33.25c.5-2.28,1.1-4.61,1.81-7q3.07-10.43.28-16.63a4.78,4.78,0,0,0,.2-.86,2.56,2.56,0,0,0-.66-.48.78.78,0,0,1-.37-.35A.88.88,0,0,1,514.52,277.84Z" transform="translate(-124.38 -152.63)" style="fill: #fc6"/>
      <path d="M510.79,274.87a15.16,15.16,0,0,1,3.73,3,.88.88,0,0,0,.44.57.78.78,0,0,0,.37.35,2.56,2.56,0,0,1,.66.48,4.78,4.78,0,0,1-.2.86q2.79,6.19-.28,16.63c-.71,2.4-1.31,4.73-1.81,7q-1,16.63-.55,33.25.5,26.86,23.92,39a235.5,235.5,0,0,1,27,16.21c.63.4.44.83-.56,1.28a70,70,0,0,0-11.07,5.24q-6.15,5.67-11.4,11.57-3.54,3.72-3.39,7.46,1.24,2.7,2.33,5.4a272.31,272.31,0,0,0,29.78-11.33q18.91-9.39,37.69-20.05a46.2,46.2,0,0,1-15.26-7.06q-11-7.46-21.19-15.74-31.74-24.93-38.94-67.85-1.62-9.84,5.2-15.23c.37.32.71.6,1,.83q9,8.81,11.12,24.65a68.23,68.23,0,0,0,6.35,20.1,87.18,87.18,0,0,0,7.88,13,101.06,101.06,0,0,0,19.11,16.16q11.37,7.66,22.9,15,3.68,2.55,7.59,4.85,1.72,1.33,3.57,2.51,10.1,6.33.17,12.82-2,5.81-9,10.51a177.92,177.92,0,0,1-60.43,25.9c-.68.29-1.32.58-1.93.87q-4.87,2.34-8.35.91a14,14,0,0,1-2.29.52,5.16,5.16,0,0,1-5.1-2.61q-5.72-9-2.78-18.35.61-6.64,7.12-12.48a65.46,65.46,0,0,1,6.07-6.86,44.17,44.17,0,0,1-14.89-6.71q-28.33-20-27.18-59.47A135.44,135.44,0,0,1,510.79,274.87Z" transform="translate(-124.38 -152.63)"/>
    </g>
    <g id="Puppy_Scared_Run_assets_Duplicate_Items_Folder_dog_ear2_0_Layer0_0_FILL" data-name="Puppy Scared Run  assets   Duplicate Items Folder dog ear2 0 Layer0 0 FILL">
      <path d="M391.53,180q-20.75-17.82-33.38-15.41a179.78,179.78,0,0,0-24.37,6q-11.44,3.7-20.1,17-8.74,13.1-9.62,14.66-4.29,6.76-10.16,17.82c.16.44,1,2.34,2.57,5.73q4.26,4.37,12.13,1.47l2.13-.78a17.9,17.9,0,0,1,3.47-13.63q4.53-6.12,10.29-14.16t16.72-13.07q10.88-5.24,13.66,2.4a4.51,4.51,0,0,1-1.18,5.37,4.63,4.63,0,0,0-1.25,5.16q.07.23,6.37,7.55,6,7.19,22.1,19.56t25.47,8.93q9.15-3.36,10.23-13.65.86-8.22-.33-11.49Q412,197.69,391.53,180Z" transform="translate(-124.38 -152.63)" style="fill: #fc6"/>
      <path d="M412.65,177.67q-18.54-18.39-36.75-23.32-18.42-4.84-46.36,3.93-28.16,8.86-44.73,58.7l2.86,7.85,4.53-2.16c.64-.89,1.21-1.76,1.7-2.6q5.87-11.06,10.16-17.82.87-1.56,9.62-14.66,8.65-13.31,20.1-17a179.78,179.78,0,0,1,24.37-6q12.63-2.42,33.38,15.41,20.45,17.7,24.75,29.47,1.19,3.27.33,11.49-1.08,10.29-10.23,13.65Q397,238,380.91,225.67t-22.1-19.56q-6.3-7.34-6.37-7.55a4.63,4.63,0,0,1,1.25-5.16,4.51,4.51,0,0,0,1.18-5.37q-2.78-7.64-13.66-2.4-11,5-16.72,13.07T314.2,212.86a17.9,17.9,0,0,0-3.47,13.63,5.28,5.28,0,0,0,.37,2.34l7,4.08a35,35,0,0,0,4.23-2.29q5.49-3.5,7.3-7.13,5.52-10.68,6.82-12.4l1.76.84a51.9,51.9,0,0,0,8,9.93q9.54,9.58,25.53,19,27.45,16.35,43.2,10.57,18.31-6.72,20.65-24.15,1.34-10.86-3.11-23.07Q428.43,193.14,412.65,177.67Z" transform="translate(-124.38 -152.63)"/>
    </g>
    <g id="Puppy_Scared_Run_assets_Duplicate_Items_Folder_dog_head_0_Layer0_0_FILL" data-name="Puppy Scared Run  assets   Duplicate Items Folder dog head 0 Layer0 0 FILL">
      <path d="M384.27,259.35a12.56,12.56,0,0,0-1.23-.56,26.61,26.61,0,0,0-3.25-5.68,24,24,0,0,0-14-8.94A117.59,117.59,0,0,0,355,233.72Q334.56,216,331.82,212.54a47.57,47.57,0,0,0-27.09-19.38,20.94,20.94,0,0,0-5.2-1.07,13,13,0,0,0-5.34-.37,17.85,17.85,0,0,0-7,1.2,2.07,2.07,0,0,0-.88.33A47.54,47.54,0,0,0,257.08,204q-9.24,7-11.86,13.53-14.44,13.11-15.09,26.15-.87,24,6.25,72.78.06.45,9.56,39.06,8.77,29.19,16.94,35.51a61.32,61.32,0,0,0,9.1,11.78Q289.74,421.3,320.86,418,394,410.3,420.5,381.55q15.75-17.42,12.9-39.82-1.17-9.14-7.56-23.29-8-15.84-11.29-23.6Q401.47,268,384.27,259.35M335.83,233.2Q342.55,239,348,243.73q-28.71,4.19-41.35,31.47-9,19.49-7.12,34.57.06.47,2.85,15.22,5.26,14.26,19.58,12.76,49.74-5.25,61.56-35.46a47,47,0,0,0,2.94-14.9l5.07,5.48q22.23,28.25,25.19,51.55,1.68,13.26-12.94,26.85-24.24,23-85.11,29.38-25.21,2.66-36.47-9.82a107.66,107.66,0,0,0-8.81-13.2q-2.6-6-5.2-12-7-16.87-8.48-26.91-.84-6.63-5.63-22.57-4.81-16.17-5.63-22.57-1.87-11.16-3.09-20.75-2.13-18.54,0-27.11,4.06-15,11.09-25a62.47,62.47,0,0,1,13.4-10.45q7.13-4.08,9.39-4a19.31,19.31,0,0,0,3.92,0q20-2.1,52.67,26.88M294,260.55a19.7,19.7,0,0,0,.91-9.13q-1.42-11.21-13.24-13.66t-10,11.94q-.13-1.06,2.15,7.88,4.68,9.71,14,8.72,4.32-.45,6.18-5.75m.83-29.74c.36,2.9,1.89,5.82,4.56,8.78q6.11,6.32,15.64,5.3a8.06,8.06,0,0,0,4.62-1.64,6.09,6.09,0,0,0,1.45-1.31l.12-6.27q-4-13.24-15.88-14.54Q293.42,220.07,294.79,230.81Z" transform="translate(-124.38 -152.63)"/>
      <path d="M348,243.73q-5.44-4.75-12.16-10.53-32.68-29-52.67-26.88a19.31,19.31,0,0,1-3.92,0q-2.26-.06-9.39,4a62.47,62.47,0,0,0-13.4,10.45q-7,10-11.09,25-2.15,8.56,0,27.11,1.22,9.6,3.09,20.75.81,6.4,5.63,22.57,4.79,15.94,5.63,22.57,1.5,10,8.48,26.91,2.6,6,5.2,12a107.66,107.66,0,0,1,8.81,13.2q11.26,12.48,36.47,9.82,60.87-6.43,85.11-29.38,14.63-13.59,12.94-26.85-3-23.31-25.19-51.55l-5.07-5.48a47,47,0,0,1-2.94,14.9Q371.69,332.5,322,337.75q-14.31,1.51-19.58-12.76-2.79-14.76-2.85-15.22-1.92-15.09,7.12-34.57,12.64-27.28,41.35-31.47m-48.64-4.14c-2.67-3-4.2-5.88-4.56-8.78q-1.37-10.74,10.51-9.68,11.9,1.29,15.88,14.54l-.12,6.27a6.09,6.09,0,0,1-1.45,1.31,8.06,8.06,0,0,1-4.62,1.64q-9.54,1-15.64-5.3m-4.48,11.83a19.7,19.7,0,0,1-.91,9.13q-1.86,5.29-6.18,5.75-9.3,1-14-8.72-2.28-8.94-2.15-7.88-1.83-14.4,10-11.94T294.87,251.42Z" transform="translate(-124.38 -152.63)" style="fill: #fc6"/>
    </g>
    <g id="Puppy_Scared_Run_assets_Duplicate_Items_Folder_dog_ear1_0_Layer0_0_FILL" data-name="Puppy Scared Run  assets   Duplicate Items Folder dog ear1 0 Layer0 0 FILL">
      <path d="M255.38,230.89l4.22-.06a17,17,0,0,0,1.33-1.17l0-.23a11.22,11.22,0,0,0,.69-3.34,2.43,2.43,0,0,0-.07-1.16q-.73-3.09-5.47-7.71a2.79,2.79,0,0,1-.63-.55,64.31,64.31,0,0,0-17.83-11.42q-28.4-12.76-52.89,1.92-9.42,5.47-17.88,17.52-7.54,10.58-10.44,19.56-3.1,8.94-18,40.23-11.77,24.18-13.75,38.35-1.35,9.68,2.78,17,9.26,15.85,40.88,20.62,36.88,5.55,49.25-34.61Q221.88,312,225,286.48q4.8-37.86,5.3-41.46c.74.27,2.5,1.68,5.26,4.24a14.5,14.5,0,0,0,7.84,4.16q5,.77,5.92-.48,1.08.62,1.77-4.33a3.68,3.68,0,0,0-.24-1.64q-1.62-3.47-8-9.48c-1.12-.94-2.16-1.86-3.12-2.77a40.64,40.64,0,0,0-19.15-8.62q-9.85-1.48-10.92,6.16-.18,1.35,2.69,11,2.64,9.59,1.95,14.53-5.62,40.5-10.39,52.87-13.54,35.16-44.71,30.48Q149,339.58,144.59,333q-3.32-4.86-3.13-12.88t19.41-55.41q19.22-47.4,42.13-54.06l19,2.86a185.09,185.09,0,0,1,19,10,39.55,39.55,0,0,1,3.45,2.12Q249.65,228.43,255.38,230.89Z" transform="translate(-124.38 -152.63)"/>
      <path d="M259.6,230.83l-4.22.06q-5.73-2.47-10.95-5.33a39.55,39.55,0,0,0-3.45-2.12,185.09,185.09,0,0,0-19-10l-19-2.86q-22.91,6.66-42.13,54.06t-19.41,55.41q-.18,8,3.13,12.88,4.46,6.63,14.53,8.16,31.15,4.68,44.71-30.48,4.75-12.37,10.39-52.87.69-4.95-1.95-14.53-2.88-9.61-2.69-11,1.06-7.65,10.92-6.16a40.64,40.64,0,0,1,19.15,8.62c1,.91,2,1.83,3.12,2.77q6.42,6,8,9.48,3.78-2,6.75-8.18a60.55,60.55,0,0,0,3.37-9.13A17,17,0,0,1,259.6,230.83Z" transform="translate(-124.38 -152.63)" style="fill: #fc6"/>
    </g>
  </g>
</svg>
